<svg width="300" height="300" xmlns="http://www.w3.org/2000/svg">

 <g>
  <title>Layer 1</title>
  <ellipse stroke-dasharray="5,5" stroke-width="8" ry="54" rx="54" id="svg_7" cy="100.8" cx="152.49999" stroke="#fff" fill="#000"/>
  <path stroke-width="10" d="m145,167.8c-2,0.5 -4.44905,1.19951 -8.00001,2c-2.96693,0.66884 -5.55029,1.69389 -9.5,2.5c-3.56654,0.72791 -6.43414,1.64429 -8.5,2.5c-2.92156,1.21014 -5.07612,1.11731 -6,1.5c-0.65328,0.2706 -1.34672,1.2294 -2,1.5c-0.46194,0.19135 -0.34672,0.7294 -1,1c-0.46194,0.19135 -0.64645,0.64645 -1,1c-0.35355,0.35355 -1,0.5 -2,2c0,0 -0.85273,0.6731 -2,1.5c-0.907,0.65373 -2,1.5 -3,2c-1,0.5 -1.5,0.5 -3,1c0,0 -1.03806,0.80865 -1.5,1c-0.65328,0.2706 -1.14645,0.14645 -1.5,0.5c-0.35355,0.35355 -0.7294,0.84673 -1,1.5c-0.19135,0.46194 -0.5,1 -1,1.5c-0.5,0.5 -0.7294,0.84673 -1,1.5c-0.19135,0.46194 0,1 -0.5,1.5c0,0 -0.58654,0.42636 -1,1c-0.65372,0.907 -0.14644,1.14645 -0.49999,1.5c-0.35356,0.35356 -0.04895,0.91222 -1,1.5c-0.42533,0.26288 -0.57468,0.23714 -1,0.5c-0.95106,0.58778 -1.08655,1.42636 -1.5,2c-0.65372,0.907 -0.5,1.5 -0.5,1.5c-0.5,1.5 -1.5,2 -1.5,2c-0.5,1.5 -0.30865,2.53806 -0.5,3c-0.2706,0.65327 -1,1 -1,2.5c0,0.5 0.20711,0.79289 -0.5,1.5c-0.35355,0.35355 -0.64645,0.64645 -1,1c-0.35355,0.35355 -0.7294,0.84673 -1,1.5c-0.19135,0.46194 -0.38512,1.01338 -0.5,1.5c-0.25687,1.08812 -1.24313,1.91188 -1.5,3c-0.34463,1.45987 -0.40146,3.00487 -0.5,4c-0.25122,2.53711 -0.33982,4.01291 -0.5,5c-0.25327,1.56071 -0.5,2.5 -0.5,3.5c0,1 0,1.5 0,3c0,0.5 0,2 0,3c0,1 0.7886,1.72403 0,3c-0.58778,0.95105 -1,1.5 -1,2.5c0,1 0,2 0,2c0,1.5 0,2 0,2c0,1 0,2 0,2.5c0,0.5 0,1 0,1.5c0,0.5 0,1 0,1.5l0,0.5l0,0" id="svg_8" stroke-dasharray="5,5" stroke="#000" fill="none"/>
  <path stroke="#000" stroke-width="10" d="m157.5,167.3c2.16176,0.5 4.8089,1.19951 8.64707,2c3.20689,0.66884 5.99921,1.6939 10.26838,2.5c3.855,0.72791 6.95455,1.64429 9.1875,2.5c3.15786,1.21015 5.48669,1.11731 6.48529,1.5c0.70612,0.2706 1.45565,1.2294 2.16176,1.5c0.49929,0.19135 0.37476,0.7294 1.08088,1c0.49929,0.19135 0.69873,0.64646 1.08088,1c0.38215,0.35355 1.08088,0.5 2.16176,2c0,0 0.9217,0.6731 2.16176,1.5c0.98036,0.65374 2.16176,1.5 3.24265,2c1.08088,0.5 1.62132,0.5 3.24265,1c0,0 1.12202,0.80866 1.62132,1c0.70612,0.2706 1.23917,0.14646 1.62132,0.5c0.38215,0.35355 0.7884,0.84673 1.08088,1.5c0.20682,0.46195 0.54044,1 1.08088,1.5c0.54044,0.5 0.7884,0.84673 1.08088,1.5c0.20682,0.46195 0,1 0.54044,1.5c0,0 0.63398,0.42636 1.08088,1c0.70659,0.907 0.15828,1.14646 0.54043,1.5c0.38216,0.35356 0.05291,0.91222 1.08088,1.5c0.45973,0.26288 0.62116,0.23714 1.08088,0.5c1.02798,0.58779 1.17443,1.42636 1.62132,2c0.70659,0.907 0.54044,1.5 0.54044,1.5c0.54044,1.5 1.62132,2 1.62132,2c0.54044,1.5 0.33361,2.53806 0.54044,3c0.29249,0.65328 1.08088,1 1.08088,2.5c0,0.5 -0.22386,0.7929 0.54044,1.5c0.38215,0.35355 0.69874,0.64646 1.08088,1c0.38215,0.35355 0.7884,0.84673 1.08088,1.5c0.20683,0.46195 0.41627,1.01339 0.54044,1.5c0.27765,1.08812 1.34368,1.91188 1.62132,3c0.3725,1.45987 0.43393,3.00487 0.54044,4c0.27154,2.53711 0.36731,4.01291 0.54044,5c0.27376,1.56072 0.54044,2.5 0.54044,3.5c0,1 0,1.5 0,3c0,0.5 0,2 0,3c0,1 -0.85238,1.72403 0,3c0.63532,0.95105 1.08088,1.5 1.08088,2.5c0,1 0,2 0,2c0,1.5 0,2 0,2c0,1 0,2 0,2.5c0,0.5 0,1 0,1.5c0,0.5 0,1 0,1.5l0,0.5l0,0" id="svg_9" stroke-dasharray="5,5" fill="none"/>
 </g>
</svg>